<svg width="845" height="268" viewBox="0 0 845 268" fill="none" xmlns="http://www.w3.org/2000/svg">
<path d="M236 72.9333C211.067 113.067 190.133 146.933 189.333 148.267C188.667 149.6 184.667 155.867 180.667 162.267C176.667 168.667 173.2 174.4 172.933 174.933C172.667 175.467 183.2 176 196.267 176H220L224.667 167.867C227.2 163.467 230.533 157.867 232 155.333C233.467 152.933 237.467 145.867 241.067 139.867C244.533 133.733 248.933 126 250.8 122.667C253.733 117.467 260 106.533 273.867 82.2667C275.6 79.2 278 74.8 279.2 72.4C280.4 70 282 68.5333 282.8 69.0667C283.6 69.6 287.733 76.2667 292.133 83.8667C296.4 91.4667 301.733 100.533 303.733 103.867C305.733 107.2 308.267 111.733 309.467 114C310.533 116.133 312.933 120.4 314.667 123.333C316.533 126.267 320.8 133.733 324.267 139.867C327.867 146 331.867 152.933 333.333 155.467C334.8 157.867 338.133 163.467 340.667 167.867L345.333 176H368.933C382 176 392.667 175.6 392.667 175.067C392.667 174.533 391.2 172 389.6 169.467C384.667 162 378.4 152.133 359.867 122.4C350.4 107.2 341.2 92.4 339.333 89.4667C337.467 86.5333 332.133 78 327.6 70.4C322.933 62.8 312.267 45.8667 303.867 32.6667C295.467 19.4667 287.6 6.66666 286.4 4.26666C285.2 1.99999 283.467 -9.17912e-06 282.667 -9.17912e-06C281.867 -9.17912e-06 260.8 32.8 236 72.9333Z" fill="white"/>
<path d="M12.6667 15.3334V29.3334H56.4C80.5333 29.3334 100.667 29.7334 101.067 30.1334C101.467 30.6667 100.667 32.5334 99.2 34.5334C96.2667 38.4 90.9333 45.6 86.2667 52.2667C62.9333 85.2 47.4667 106.933 39.3333 118C37.4667 120.533 34.6667 124.533 32.9333 126.933C16.9333 149.467 5.73333 165.2 3.46667 168.133C-3.06667 176.667 -9.33333 176 82.5333 176H166V160V144H120.933C96.1333 144 75.4667 143.6 75.0667 143.2C74.5333 142.8 77.0667 138.533 80.4 133.733C83.8667 128.933 88 123.2 89.7333 120.933C91.3333 118.533 94.1333 114.533 95.8667 112C97.6 109.467 103.6 101.067 109.067 93.3334C124.933 71.3334 125.2 70.9334 128.4 66.4C130.133 64 140.533 49.4667 151.467 34.2667C162.4 18.9334 172 5.33338 172.667 3.86671C174.133 1.33338 172.533 1.33338 93.3333 1.33338H12.6667V15.3334Z" fill="white"/>
<path d="M402.267 88.2668L402.667 175.333H468H533.333L533.733 160.4L534.133 145.333L489.067 145.067L444 144.667L443.6 72.9335L443.333 1.33349H422.667H402L402.267 88.2668Z" fill="white"/>
<path d="M547.6 88.2668L548 175.333H613.333H678.667V160.667V146L634 145.333L589.333 144.667L588.933 117.467C588.667 94.6668 588.933 90.5335 590.533 91.0668C591.467 91.4668 600 97.2002 609.2 103.867C618.533 110.533 626.8 116 627.467 116C628.133 116 628.667 104.933 628.667 89.3335C628.667 74.6668 628.4 62.6668 628 62.6668C626.933 62.6668 621.733 66.1335 605.467 77.6002C597.467 83.3335 590.4 88.0002 589.867 88.0002C589.2 88.0002 588.667 75.7335 588.667 60.8002C588.667 37.2002 588.933 33.4668 590.8 32.8002C592 32.4002 612 32.0002 635.467 32.0002H678V16.6668V1.33349H612.667H547.333L547.6 88.2668Z" fill="white"/>
<path d="M732.667 3.33332C729.333 4.39999 723.067 8.13332 718.8 11.6C705.467 22.4 700.8 36 705.2 51.2C708.8 63.3333 710.533 65.0667 766.533 107.733C790.667 126.133 795.333 130.667 795.333 135.467C795.333 138 794.267 140.667 792.533 142.133C789.867 144.533 786.8 144.667 743.2 145.067L696.667 145.467V160.667V176H748.533C777.6 176 803.467 175.467 807.467 174.667C817.6 172.8 830 166.267 834.533 160.667C843.733 148.933 846.133 131.867 840.267 120.4C835.6 111.333 828.533 105.333 773.733 64.6667C755.333 51.0667 752.4 48.1333 750.8 43.0667C750.133 40.8 750.667 39.2 753.2 36.6667L756.533 33.3333H794.667H832.667V17.3333V1.33332L785.733 1.46666C749.6 1.46666 737.333 1.99999 732.667 3.33332Z" fill="white"/>
<path d="M251.333 125.333C251.333 126 252.133 127.067 253.067 127.6C253.867 128.133 258 132.533 262 137.333C266 142.133 271.2 148.133 273.6 150.667C276 153.2 278.8 156.533 280 158C282.267 161.067 281.867 161.333 300.667 140C305.467 134.533 310.4 129.2 311.733 128.133C312.933 126.933 314 125.6 314 125.067C314 124.4 299.867 124 282.667 124C263.733 124 251.333 124.533 251.333 125.333Z" fill="white"/>
<path d="M825.2 216.667C824 218.534 823.333 220.4 823.733 220.8C824.133 221.2 825.2 220.267 826 218.667C826.8 217.2 828.8 215.334 830.4 214.667L833.333 213.467H830.4C828.533 213.334 826.533 214.667 825.2 216.667Z" fill="white"/>
<path d="M835.333 214.267C842 216.667 843.733 222.533 839.467 227.6C835.333 232.667 828.4 231.2 824.933 224.667C824.133 223.2 823.333 222.667 823.333 223.467C823.333 227.067 828.933 232 833.067 232C838.267 232 844.667 226.533 844.667 222.133C844.667 218.533 839.467 213.333 835.867 213.467C834 213.467 833.867 213.733 835.333 214.267Z" fill="white"/>
<path d="M17.7333 216.933L5.99998 217.467V224.4L6.13332 231.333L8.53332 226.8C11.2 221.867 13.8667 220.267 19.7333 220.133L23.3333 220V242C23.3333 261.467 23.0667 264 21.0667 265.2C19.2 266.267 20.1333 266.533 25.3333 266.667C30.4 266.667 31.4667 266.267 30.2667 265.067C28.1333 262.933 28 221.867 30.1333 220.667C30.9333 220.133 33.6 220.133 36.1333 220.667C39.8667 221.333 41.3333 222.4 42.8 226.133C45.4667 232.533 47.6 231.867 46.5333 224.933C45.3333 215.867 45.4667 216 37.0667 216.267C32.8 216.4 24.1333 216.8 17.7333 216.933Z" fill="white"/>
<path d="M50 217.333C50 218 50.6667 218.667 51.3333 218.667C53.4667 218.667 53.0667 264.933 51.0667 265.733C50.1333 266.133 52.4 266.4 56 266.4C59.7333 266.4 61.8667 266.133 61.0667 265.733C59.8667 265.333 59.3333 261.6 59.3333 253.867V242.667H74.6667H90V253.867C90 261.6 89.4667 265.333 88.4 265.733C87.4667 266.133 89.7333 266.4 93.3333 266.4C97.0667 266.4 99.2 266.133 98.4 265.733C96.2667 264.933 95.8667 218.667 98 218.667C98.8 218.667 99.3333 218 99.3333 217.333C99.3333 216.533 96.6667 216 93.3333 216C90 216 87.3333 216.533 87.3333 217.333C87.3333 218 88 218.667 88.6667 218.667C89.4667 218.667 90 223.067 90 229.333V240H74.6667H59.3333V229.333C59.3333 221.733 59.8667 218.667 61.0667 218.533C62.9333 218.267 55.8667 216.4 52.4 216.133C51.0667 216.133 50 216.533 50 217.333Z" fill="white"/>
<path d="M106 217.6C106 218.133 106.667 218.933 107.333 219.333C109.467 220.667 109.067 264.933 107.067 265.733C106.133 266.133 115.067 266.533 127.067 266.533L148.667 266.667L148.533 260.267C148.533 256.8 148.133 254.933 147.733 256C147.333 257.067 145.733 259.333 144.267 260.933C141.733 263.733 140.267 264 128.4 264H115.333V253.333V242.667H123.867C130.267 242.667 132.533 243.2 133.2 244.667C134.667 248.8 136.667 246.4 136.667 240.4V234.267L133.467 237.2C130.933 239.6 129.067 240.133 123.2 239.733L116 239.333L115.6 229.6L115.2 220H127.333C138.533 220 139.733 220.267 142.533 223.333C146.667 227.733 147.067 227.6 146.133 221.6L145.333 216.667H125.6C114.8 216.667 106 217.067 106 217.6Z" fill="white"/>
<path d="M185.333 217.2C183.2 217.867 182.133 218.4 183.067 218.533C184.267 218.667 184.667 224.133 184.667 241.333C184.667 261.333 184.4 264 182.4 265.2C180.667 266.267 183.6 266.533 193.333 266.667C214.133 266.667 222.8 263.2 227.467 252.8C233.467 239.733 227.467 225.2 213.867 219.467C208.133 217.067 190.933 215.733 185.333 217.2ZM212.267 223.467C220.267 227.333 225.2 237.867 223.067 247.2C220.667 257.867 210.933 264 196.133 264H190V242.933C190 231.333 190.4 221.333 191.067 220.8C192.533 219.2 207.067 221.067 212.267 223.467Z" fill="white"/>
<path d="M238.667 217.2C236 217.733 235.2 218.4 236.4 219.067C237.6 219.867 238 226 238 242C238 261.467 237.733 264 235.733 265.2C233.867 266.267 234.8 266.533 240 266.533C243.733 266.533 245.867 266.133 245.067 265.733C242.933 264.933 242.533 220.667 244.667 219.333C246.533 218.133 246.267 216 244.4 216.133C243.467 216.267 240.933 216.667 238.667 217.2Z" fill="white"/>
<path d="M312.667 217.333C312.667 218 313.333 218.667 314 218.667C314.8 218.667 315.333 226.8 315.333 240.533C315.333 258.667 314.933 262.8 313.2 264.533C311.333 266.533 311.733 266.667 316.933 266.533C320.133 266.533 321.867 266.133 321.067 265.733C319.2 265.067 318.933 252.133 320.533 235.6L321.333 226.4L330.933 246.933C336.533 258.667 341.467 267.467 342.667 267.733C344.667 268.133 346.8 264.133 354.267 246C355.733 242.267 358.267 236.667 359.733 233.333L362.533 227.333L363.733 245.867C364.667 260.8 364.533 264.533 363.067 265.467C362 266.267 363.867 266.667 367.867 266.667C373.467 266.667 374.133 266.4 372.267 264.933C370.4 263.6 369.867 259.733 369.067 240.933C368.533 224.533 368.667 218.667 369.733 218.667C370.667 218.667 371.333 218 371.333 217.333C371.333 216.533 369.6 216 367.333 216C362.8 216 360.533 218.8 356.8 228.933C353.333 238 344.533 259.2 344 259.733C343.733 260 338.8 250.267 332.8 238.133L322 216H317.333C314.8 216 312.667 216.533 312.667 217.333Z" fill="white"/>
<path d="M390.267 219.333C373.6 227.867 371.333 249.467 386 261.733C396.533 270.667 416.533 269.733 425.6 259.867C440.533 243.6 428.267 217.867 404.933 216.267C398.667 215.867 396 216.4 390.267 219.333ZM416.4 223.467C426.4 230.8 428.8 247.467 421.2 256.933C409.333 271.6 386.267 264.933 381.867 245.6C379.733 236.267 384.933 225.6 393.2 221.867C399.067 219.2 411.733 220.133 416.4 223.467Z" fill="white"/>
<path d="M478 217.067C478 217.867 478.667 218.933 479.333 219.333C480.133 219.867 480.667 227.867 480.667 239.067C480.533 256.4 480.4 257.733 478.533 255.333C477.333 253.867 472.133 246.933 466.933 239.867C449.733 217.2 450 217.333 444.133 217.333C440 217.333 439.2 217.733 440.4 218.933C442.667 221.2 442.667 262.8 440.4 265.067C439.2 266.267 440.267 266.667 445.467 266.533C450.667 266.533 451.467 266.267 449.067 265.333C446.133 264.133 446 263.6 446 243.333C446 231.467 446.533 222.8 447.2 223.2C448.267 223.867 457.467 235.6 474.667 258.533C484.933 272 485.333 271.467 485.733 244.133C485.867 229.733 486.667 220.133 487.467 219.067C488.667 217.733 488.4 217.333 486.533 217.333C485.067 217.333 482.667 216.933 481.067 216.533C479.333 216 478 216.267 478 217.067Z" fill="white"/>
<path d="M504 217.067C500.533 217.733 499.2 218.4 500.4 219.067C501.6 219.867 502 226 502 242C502 261.333 501.733 264 499.733 265.333C498 266.4 501.467 266.667 513.333 266.4C532.133 265.867 537.6 264 543.067 255.6C548 248.133 548.133 236.267 543.333 228.933C537.333 219.733 519.867 214.533 504 217.067ZM529.6 223.467C536.533 226.8 540.667 234.133 540.667 243.2C540.667 250.4 540.267 251.333 535.6 256C530.267 261.333 523.467 264 514.533 264H508.933L508 243.467C507.467 232.133 507.467 222.133 508 221.333C509.333 219.2 523.6 220.8 529.6 223.467Z" fill="white"/>
<path d="M586.933 217.867C579.333 220.667 576.667 223.6 576.667 229.333C576.667 237.2 580.667 240 597.333 243.467C607.867 245.733 611.333 248.133 611.333 253.6C611.333 261.867 600.133 267.067 588.933 264C584.4 262.933 583.067 261.733 581.2 257.333C577.467 248.933 575.467 251.067 577.467 261.2C578.133 264.533 579.2 265.6 583.2 266.667C590.8 268.8 602 268.267 608.267 265.333C618 261.067 620.667 250.533 613.867 244.133C611.2 241.733 607.333 240.4 592.933 237.2C576.133 233.6 580.267 219.467 598.133 219.467C606.267 219.333 609.333 221.067 611.733 226.667C613.2 229.867 613.2 229.867 613.733 224.8C614 222 613.6 219.067 612.8 218.267C610.533 216 592.667 215.733 586.933 217.867Z" fill="white"/>
<path d="M624 217.6C623.467 218.8 623.333 222.267 623.6 225.467C624 230 624.267 230.667 625.2 228.667C627.333 223.2 628.4 222 632.4 220.8C640.533 218.533 640.667 219.067 640.667 242.533C640.667 261.467 640.4 264 638.4 265.2C636.533 266.267 637.733 266.533 643.333 266.533C648.933 266.533 650.133 266.267 648.4 265.2C646.267 264 646 261.467 646 242.667C646 229.067 646.533 221.2 647.467 220.667C648.267 220.133 650.933 220.133 653.467 220.667C657.333 221.333 658.533 222.4 660.133 226.267C662.667 232.133 664.4 230.533 663.6 222.933L663.067 217.333H656.8C653.467 217.333 644.8 216.933 637.733 216.4C626.8 215.733 624.667 215.867 624 217.6Z" fill="white"/>
<path d="M679.6 219.334C669.6 224.534 665.467 231.734 666.267 243.2C666.667 250.667 667.467 252.534 671.733 257.734C685.333 274.4 715.2 269.734 720.533 250.134C722.267 243.734 720.4 233.2 716.533 227.867C712.267 221.867 703.2 217.2 694.4 216.4C687.867 215.867 685.6 216.4 679.6 219.334ZM702.533 221.867C716.267 227.6 719.467 249.734 708 259.734C698.267 268.4 683.333 265.867 675.733 254.534C668.267 243.2 671.733 226.667 682.667 221.867C687.867 219.6 696.933 219.6 702.533 221.867Z" fill="white"/>
<path d="M726 217.067C726 217.733 726.933 218.667 728 219.2C729.733 219.733 730 223.6 730 242.533C730 262.933 729.733 265.2 727.733 265.733C726.4 266.133 728.667 266.4 732.667 266.4C736.667 266.4 739.2 266.133 738.4 265.733C737.067 265.333 736.667 259.333 736.667 242.4V219.6L745.467 220.4C756.267 221.467 760.667 224 760.667 229.067C760.667 234.667 755.467 238.8 747.733 239.6C737.333 240.533 737.333 240.8 744.8 248.267C748.533 252.133 753.733 257.867 756.267 260.933C760.533 266 761.6 266.667 766.533 266.533C769.467 266.533 771.067 266.133 770 265.733C768.933 265.333 763.333 260.267 757.733 254.267L747.6 243.467L753.467 241.867C767.867 238.267 771.6 224.933 759.867 219.333C754 216.533 726 214.667 726 217.067Z" fill="white"/>
<path d="M776.667 217.2C776.667 217.867 777.2 218.667 777.867 218.933C778.533 219.067 779.467 228.933 780 240.8C780.8 259.867 780.667 262.533 778.667 264.4C776.667 266.533 777.867 266.667 797.867 266.667H819.333V260.533C819.333 256.933 818.8 254.8 818 255.333C817.333 255.733 816.667 256.933 816.667 258C816.667 262.667 812.8 264 799.2 264H786V253.333V242.667H794.667C801.2 242.667 803.6 243.2 804.133 244.667C805.733 248.667 807.333 246.533 807.333 240.4V234.267L804.133 237.2C801.6 239.6 799.733 240.133 793.867 239.733L786.667 239.333L786.267 229.6L785.867 220H798C809.2 220 810.4 220.267 813.467 223.333L816.8 226.667L816.4 222.4C816 218.133 815.867 218 808 217.2C795.6 215.867 776.667 215.867 776.667 217.2Z" fill="white"/>
<path d="M272.4 218.267C273.2 218.533 274 219.867 274 221.067C274 224.267 255.733 264.267 253.733 265.6C252.667 266.133 254.8 266.533 258.667 266.533C262.4 266.533 264.533 266.133 263.733 265.733C261.333 264.8 261.6 262.133 264.8 254.533L267.733 247.867L279.067 248.267L290.4 248.667L293.2 256.4C295.467 263.067 295.6 264.267 294 265.333C292.667 266.267 294.267 266.667 299.333 266.667C303.467 266.667 306 266.133 305.067 265.6C304.133 264.933 300.267 257.6 296.533 249.2C292.933 240.8 288.8 231.6 287.467 228.667C286.133 225.733 284.533 222 284.133 220.267C283.333 217.733 282.267 217.333 276.933 217.467C273.467 217.467 271.467 217.867 272.4 218.267ZM286.8 241.6L287.6 245.333H279.067C274.267 245.333 270.133 244.933 269.733 244.533C269.333 244.133 271.067 238.933 273.733 233.067L278.667 222.267L282.267 230.133C284.267 234.4 286.267 239.6 286.8 241.6Z" fill="white"/>
<path d="M830 221.2C830 223.467 830 225.733 829.867 226.267C829.867 226.8 830.4 227.467 831.2 227.733C832 228 832.667 227.2 832.667 225.867C832.667 224 833.067 223.867 834.267 225.067C836.667 227.467 838.667 227.067 836.533 224.533C835.2 222.8 835.2 222.267 836.8 221.2C837.867 220.533 838 220 837.333 220C836.533 220 835.2 220.667 834.267 221.6C833.067 222.8 832.667 222.667 832.667 221.067C832.667 219.867 832.133 218.4 831.333 218C830.533 217.467 830 218.933 830 221.2Z" fill="white"/>
</svg>
