<svg width="844" height="177" viewBox="0 0 844 177" fill="none" xmlns="http://www.w3.org/2000/svg">
<path d="M235.857 72.9333C210.923 113.067 189.99 146.933 189.19 148.267C188.523 149.6 184.523 155.867 180.523 162.267C176.523 168.667 173.057 174.4 172.79 174.933C172.523 175.467 183.057 176 196.123 176H219.857L224.523 167.867C227.057 163.467 230.39 157.867 231.857 155.333C233.323 152.933 237.323 145.867 240.923 139.867C244.39 133.733 248.79 126 250.657 122.667C253.59 117.467 259.857 106.533 273.723 82.2667C275.457 79.2 277.857 74.8 279.057 72.4C280.257 70 281.857 68.5333 282.657 69.0667C283.457 69.6 287.59 76.2667 291.99 83.8667C296.257 91.4667 301.59 100.533 303.59 103.867C305.59 107.2 308.123 111.733 309.323 114C310.39 116.133 312.79 120.4 314.523 123.333C316.39 126.267 320.657 133.733 324.123 139.867C327.723 146 331.723 152.933 333.19 155.467C334.657 157.867 337.99 163.467 340.523 167.867L345.19 176H368.79C381.857 176 392.523 175.6 392.523 175.067C392.523 174.533 391.057 172 389.457 169.467C384.523 162 378.257 152.133 359.723 122.4C350.257 107.2 341.057 92.4 339.19 89.4667C337.323 86.5333 331.99 78 327.457 70.4C322.79 62.8 312.123 45.8667 303.723 32.6667C295.323 19.4667 287.457 6.66666 286.257 4.26666C285.057 1.99999 283.323 -9.17912e-06 282.523 -9.17912e-06C281.723 -9.17912e-06 260.657 32.8 235.857 72.9333Z" fill="white"/>
<path d="M12.5232 15.3334V29.3334H56.2566C80.3899 29.3334 100.523 29.7334 100.923 30.1334C101.323 30.6667 100.523 32.5334 99.0566 34.5334C96.1233 38.4 90.7899 45.6 86.1233 52.2667C62.7899 85.2 47.3233 106.933 39.1899 118C37.3233 120.533 34.5233 124.533 32.7899 126.933C16.7899 149.467 5.58992 165.2 3.32325 168.133C-3.21008 176.667 -9.47675 176 82.3899 176H165.857V160V144H120.79C95.9899 144 75.3233 143.6 74.9233 143.2C74.3899 142.8 76.9233 138.533 80.2566 133.733C83.7233 128.933 87.8566 123.2 89.5899 120.933C91.1899 118.533 93.9899 114.533 95.7233 112C97.4566 109.467 103.457 101.067 108.923 93.3334C124.79 71.3334 125.057 70.9334 128.257 66.4C129.99 64 140.39 49.4667 151.323 34.2667C162.257 18.9334 171.857 5.33338 172.523 3.86671C173.99 1.33338 172.39 1.33338 93.1899 1.33338H12.5232V15.3334Z" fill="white"/>
<path d="M402.123 88.2667L402.523 175.333H467.857H533.19L533.59 160.4L533.99 145.333L488.923 145.067L443.857 144.667L443.457 72.9334L443.19 1.33336H422.523H401.857L402.123 88.2667Z" fill="white"/>
<path d="M547.457 88.2667L547.857 175.333H613.19H678.523V160.667V146L633.857 145.333L589.19 144.667L588.79 117.467C588.523 94.6667 588.79 90.5334 590.39 91.0667C591.323 91.4667 599.857 97.2 609.057 103.867C618.39 110.533 626.657 116 627.323 116C627.99 116 628.523 104.933 628.523 89.3334C628.523 74.6667 628.257 62.6667 627.857 62.6667C626.79 62.6667 621.59 66.1334 605.323 77.6C597.323 83.3334 590.257 88 589.723 88C589.057 88 588.523 75.7334 588.523 60.8C588.523 37.2 588.79 33.4667 590.657 32.8C591.857 32.4 611.857 32 635.323 32H677.857V16.6667V1.33337H612.523H547.19L547.457 88.2667Z" fill="white"/>
<path d="M732.523 3.33332C729.19 4.39999 722.923 8.13332 718.656 11.6C705.323 22.4 700.656 36 705.056 51.2C708.656 63.3333 710.39 65.0667 766.39 107.733C790.523 126.133 795.19 130.667 795.19 135.467C795.19 138 794.123 140.667 792.39 142.133C789.723 144.533 786.656 144.667 743.056 145.067L696.523 145.467V160.667V176H748.39C777.456 176 803.323 175.467 807.323 174.667C817.456 172.8 829.856 166.267 834.39 160.667C843.59 148.933 845.99 131.867 840.123 120.4C835.456 111.333 828.39 105.333 773.59 64.6667C755.19 51.0667 752.256 48.1333 750.656 43.0667C749.99 40.8 750.523 39.2 753.056 36.6667L756.39 33.3333H794.523H832.523V17.3333V1.33332L785.59 1.46666C749.456 1.46666 737.19 1.99999 732.523 3.33332Z" fill="white"/>
<path d="M251.19 120.333C251.19 121 251.99 122.067 252.923 122.6C253.723 123.133 257.857 127.533 261.857 132.333C265.857 137.133 271.057 143.133 273.457 145.667C275.857 148.2 278.657 151.533 279.857 153C282.123 156.067 281.723 156.333 300.523 135C305.323 129.533 310.257 124.2 311.59 123.133C312.79 121.933 313.857 120.6 313.857 120.067C313.857 119.4 299.723 119 282.523 119C263.59 119 251.19 119.533 251.19 120.333Z" fill="white"/>
</svg>
