<svg width="845" height="279" viewBox="0 0 845 279" fill="none" xmlns="http://www.w3.org/2000/svg">
<path d="M235.857 72.9333C210.923 113.067 189.99 146.933 189.19 148.267C188.523 149.6 184.523 155.867 180.523 162.267C176.523 168.667 173.057 174.4 172.79 174.933C172.523 175.467 183.057 176 196.123 176H219.857L224.523 167.867C227.057 163.467 230.39 157.867 231.857 155.333C233.323 152.933 237.323 145.867 240.923 139.867C244.39 133.733 248.79 126 250.657 122.667C253.59 117.467 259.857 106.533 273.723 82.2667C275.457 79.2 277.857 74.8 279.057 72.4C280.257 70 281.857 68.5333 282.657 69.0667C283.457 69.6 287.59 76.2667 291.99 83.8667C296.257 91.4667 301.59 100.533 303.59 103.867C305.59 107.2 308.123 111.733 309.323 114C310.39 116.133 312.79 120.4 314.523 123.333C316.39 126.267 320.657 133.733 324.123 139.867C327.723 146 331.723 152.933 333.19 155.467C334.657 157.867 337.99 163.467 340.523 167.867L345.19 176H368.79C381.857 176 392.523 175.6 392.523 175.067C392.523 174.533 391.057 172 389.457 169.467C384.523 162 378.257 152.133 359.723 122.4C350.257 107.2 341.057 92.4 339.19 89.4667C337.323 86.5333 331.99 78 327.457 70.4C322.79 62.8 312.123 45.8667 303.723 32.6667C295.323 19.4667 287.457 6.66666 286.257 4.26666C285.057 1.99999 283.323 -9.17912e-06 282.523 -9.17912e-06C281.723 -9.17912e-06 260.657 32.8 235.857 72.9333Z" fill="white"/>
<path d="M12.5232 15.3333V29.3333H56.2566C80.3899 29.3333 100.523 29.7333 100.923 30.1333C101.323 30.6666 100.523 32.5333 99.0566 34.5333C96.1233 38.4 90.7899 45.6 86.1233 52.2666C62.7899 85.2 47.3233 106.933 39.1899 118C37.3233 120.533 34.5233 124.533 32.7899 126.933C16.7899 149.467 5.58992 165.2 3.32325 168.133C-3.21008 176.667 -9.47675 176 82.3899 176H165.857V160V144H120.79C95.9899 144 75.3233 143.6 74.9233 143.2C74.3899 142.8 76.9233 138.533 80.2566 133.733C83.7233 128.933 87.8566 123.2 89.5899 120.933C91.1899 118.533 93.9899 114.533 95.7233 112C97.4566 109.467 103.457 101.067 108.923 93.3333C124.79 71.3333 125.057 70.9333 128.257 66.4C129.99 64 140.39 49.4666 151.323 34.2666C162.257 18.9333 171.857 5.33332 172.523 3.86665C173.99 1.33332 172.39 1.33332 93.1899 1.33332H12.5232V15.3333Z" fill="white"/>
<path d="M402.123 88.2666L402.523 175.333H467.857H533.19L533.59 160.4L533.99 145.333L488.923 145.067L443.857 144.667L443.457 72.9333L443.19 1.3333H422.523H401.857L402.123 88.2666Z" fill="white"/>
<path d="M547.457 88.2666L547.857 175.333H613.19H678.523V160.667V146L633.857 145.333L589.19 144.667L588.79 117.467C588.523 94.6666 588.79 90.5333 590.39 91.0666C591.323 91.4666 599.857 97.2 609.057 103.867C618.39 110.533 626.657 116 627.323 116C627.99 116 628.523 104.933 628.523 89.3333C628.523 74.6666 628.257 62.6666 627.857 62.6666C626.79 62.6666 621.59 66.1333 605.323 77.6C597.323 83.3333 590.257 88 589.723 88C589.057 88 588.523 75.7333 588.523 60.8C588.523 37.2 588.79 33.4666 590.657 32.8C591.857 32.4 611.857 32 635.323 32H677.857V16.6666V1.3333H612.523H547.19L547.457 88.2666Z" fill="white"/>
<path d="M732.523 3.33332C729.19 4.39999 722.923 8.13332 718.657 11.6C705.323 22.4 700.657 36 705.057 51.2C708.657 63.3333 710.39 65.0667 766.39 107.733C790.523 126.133 795.19 130.667 795.19 135.467C795.19 138 794.123 140.667 792.39 142.133C789.723 144.533 786.657 144.667 743.057 145.067L696.523 145.467V160.667V176H748.39C777.457 176 803.323 175.467 807.323 174.667C817.457 172.8 829.857 166.267 834.39 160.667C843.59 148.933 845.99 131.867 840.123 120.4C835.457 111.333 828.39 105.333 773.59 64.6667C755.19 51.0667 752.257 48.1333 750.657 43.0667C749.99 40.8 750.523 39.2 753.057 36.6667L756.39 33.3333H794.523H832.523V17.3333V1.33332L785.59 1.46666C749.457 1.46666 737.19 1.99999 732.523 3.33332Z" fill="white"/>
<path d="M251.19 125.333C251.19 126 251.99 127.067 252.923 127.6C253.723 128.133 257.857 132.533 261.857 137.333C265.857 142.133 271.057 148.133 273.457 150.667C275.857 153.2 278.657 156.533 279.857 158C282.123 161.067 281.723 161.333 300.523 140C305.323 134.533 310.257 129.2 311.59 128.133C312.79 126.933 313.857 125.6 313.857 125.067C313.857 124.4 299.723 124 282.523 124C263.59 124 251.19 124.533 251.19 125.333Z" fill="white"/>
<path d="M825.057 216.667C823.857 218.533 823.19 220.4 823.59 220.8C823.99 221.2 825.057 220.267 825.857 218.667C826.657 217.2 828.657 215.333 830.257 214.667L833.19 213.467H830.257C828.39 213.333 826.39 214.667 825.057 216.667Z" fill="white"/>
<path d="M835.19 214.267C841.857 216.667 843.59 222.533 839.323 227.6C835.19 232.667 828.257 231.2 824.79 224.667C823.99 223.2 823.19 222.667 823.19 223.467C823.19 227.067 828.79 232 832.923 232C838.123 232 844.523 226.533 844.523 222.133C844.523 218.533 839.323 213.333 835.723 213.467C833.857 213.467 833.723 213.733 835.19 214.267Z" fill="white"/>
<path d="M17.5899 216.933L5.85657 217.467V224.4L5.9899 231.333L8.3899 226.8C11.0566 221.867 13.7232 220.267 19.5899 220.133L23.1899 220V242C23.1899 261.467 22.9232 264 20.9232 265.2C19.0566 266.267 19.9899 266.533 25.1899 266.667C30.2566 266.667 31.3232 266.267 30.1232 265.067C27.9899 262.933 27.8566 221.867 29.9899 220.667C30.7899 220.133 33.4566 220.133 35.9899 220.667C39.7232 221.333 41.1899 222.4 42.6566 226.133C45.3232 232.533 47.4566 231.867 46.3899 224.933C45.1899 215.867 45.3232 216 36.9232 216.267C32.6566 216.4 23.9899 216.8 17.5899 216.933Z" fill="white"/>
<path d="M51.8566 228.333C51.8566 229 52.5232 229.667 53.1899 229.667C55.3232 229.667 54.9232 275.933 52.9232 276.733C51.9899 277.133 54.2566 277.4 57.8566 277.4C61.5899 277.4 63.7232 277.133 62.9232 276.733C61.7232 276.333 61.1899 272.6 61.1899 264.867V253.667H76.5232H91.8566V264.867C91.8566 272.6 91.3232 276.333 90.2566 276.733C89.3232 277.133 91.5899 277.4 95.1899 277.4C98.9232 277.4 101.057 277.133 100.257 276.733C98.1232 275.933 97.7232 229.667 99.8566 229.667C100.657 229.667 101.19 229 101.19 228.333C101.19 227.533 98.5232 227 95.1899 227C91.8566 227 89.1899 227.533 89.1899 228.333C89.1899 229 89.8566 229.667 90.5232 229.667C91.3232 229.667 91.8566 234.067 91.8566 240.333V251H76.5232H61.1899V240.333C61.1899 232.733 61.7232 229.667 62.9232 229.533C64.7899 229.267 57.7232 227.4 54.2566 227.133C52.9232 227.133 51.8566 227.533 51.8566 228.333Z" fill="white"/>
<path d="M105.857 217.6C105.857 218.133 106.523 218.933 107.19 219.333C109.323 220.667 108.923 264.933 106.923 265.733C105.99 266.133 114.923 266.533 126.923 266.533L148.523 266.667L148.39 260.267C148.39 256.8 147.99 254.933 147.59 256C147.19 257.067 145.59 259.333 144.123 260.933C141.59 263.733 140.123 264 128.257 264H115.19V253.333V242.667H123.723C130.123 242.667 132.39 243.2 133.057 244.667C134.523 248.8 136.523 246.4 136.523 240.4V234.267L133.323 237.2C130.79 239.6 128.923 240.133 123.057 239.733L115.857 239.333L115.457 229.6L115.057 220H127.19C138.39 220 139.59 220.267 142.39 223.333C146.523 227.733 146.923 227.6 145.99 221.6L145.19 216.667H125.457C114.657 216.667 105.857 217.067 105.857 217.6Z" fill="white"/>
<path d="M185.19 217.2C183.057 217.867 181.99 218.4 182.923 218.533C184.123 218.667 184.523 224.133 184.523 241.333C184.523 261.333 184.257 264 182.257 265.2C180.523 266.267 183.457 266.533 193.19 266.667C213.99 266.667 222.657 263.2 227.323 252.8C233.323 239.733 227.323 225.2 213.723 219.467C207.99 217.067 190.79 215.733 185.19 217.2ZM212.123 223.467C220.123 227.333 225.057 237.867 222.923 247.2C220.523 257.867 210.79 264 195.99 264H189.857V242.933C189.857 231.333 190.257 221.333 190.923 220.8C192.39 219.2 206.923 221.067 212.123 223.467Z" fill="white"/>
<path d="M238.523 228.2C235.857 228.733 235.057 229.4 236.257 230.067C237.457 230.867 237.857 237 237.857 253C237.857 272.467 237.59 275 235.59 276.2C233.723 277.267 234.657 277.533 239.857 277.533C243.59 277.533 245.723 277.133 244.923 276.733C242.79 275.933 242.39 231.667 244.523 230.333C246.39 229.133 246.123 227 244.257 227.133C243.323 227.267 240.79 227.667 238.523 228.2Z" fill="white"/>
<path d="M312.523 228.333C312.523 229 313.19 229.667 313.857 229.667C314.657 229.667 315.19 237.8 315.19 251.533C315.19 269.667 314.79 273.8 313.057 275.533C311.19 277.533 311.59 277.667 316.79 277.533C319.99 277.533 321.723 277.133 320.923 276.733C319.057 276.067 318.79 263.133 320.39 246.6L321.19 237.4L330.79 257.933C336.39 269.667 341.323 278.467 342.523 278.733C344.523 279.133 346.657 275.133 354.123 257C355.59 253.267 358.123 247.667 359.59 244.333L362.39 238.333L363.59 256.867C364.523 271.8 364.39 275.533 362.923 276.467C361.857 277.267 363.723 277.667 367.723 277.667C373.323 277.667 373.99 277.4 372.123 275.933C370.257 274.6 369.723 270.733 368.923 251.933C368.39 235.533 368.523 229.667 369.59 229.667C370.523 229.667 371.19 229 371.19 228.333C371.19 227.533 369.457 227 367.19 227C362.657 227 360.39 229.8 356.657 239.933C353.19 249 344.39 270.2 343.857 270.733C343.59 271 338.657 261.267 332.657 249.133L321.857 227H317.19C314.657 227 312.523 227.533 312.523 228.333Z" fill="white"/>
<path d="M390.123 219.333C373.457 227.867 371.19 249.467 385.857 261.733C396.39 270.667 416.39 269.733 425.457 259.867C440.39 243.6 428.123 217.867 404.79 216.267C398.523 215.867 395.857 216.4 390.123 219.333ZM416.257 223.467C426.257 230.8 428.657 247.467 421.057 256.933C409.19 271.6 386.123 264.933 381.723 245.6C379.59 236.267 384.79 225.6 393.057 221.867C398.923 219.2 411.59 220.133 416.257 223.467Z" fill="white"/>
<path d="M477.857 226.067C477.857 226.867 478.523 227.933 479.19 228.333C479.99 228.867 480.523 236.867 480.523 248.067C480.39 265.4 480.257 266.733 478.39 264.333C477.19 262.867 471.99 255.933 466.79 248.867C449.59 226.2 449.857 226.333 443.99 226.333C439.857 226.333 439.057 226.733 440.257 227.933C442.523 230.2 442.523 271.8 440.257 274.067C439.057 275.267 440.123 275.667 445.323 275.533C450.523 275.533 451.323 275.267 448.923 274.333C445.99 273.133 445.857 272.6 445.857 252.333C445.857 240.467 446.39 231.8 447.057 232.2C448.123 232.867 457.323 244.6 474.523 267.533C484.79 281 485.19 280.467 485.59 253.133C485.723 238.733 486.523 229.133 487.323 228.067C488.523 226.733 488.257 226.333 486.39 226.333C484.923 226.333 482.523 225.933 480.923 225.533C479.19 225 477.857 225.267 477.857 226.067Z" fill="white"/>
<path d="M503.857 217.067C500.39 217.733 499.057 218.4 500.257 219.067C501.457 219.867 501.857 226 501.857 242C501.857 261.333 501.59 264 499.59 265.333C497.857 266.4 501.323 266.667 513.19 266.4C531.99 265.867 537.457 264 542.923 255.6C547.857 248.133 547.99 236.267 543.19 228.933C537.19 219.733 519.723 214.533 503.857 217.067ZM529.457 223.467C536.39 226.8 540.523 234.133 540.523 243.2C540.523 250.4 540.123 251.333 535.457 256C530.123 261.333 523.323 264 514.39 264H508.79L507.857 243.467C507.323 232.133 507.323 222.133 507.857 221.333C509.19 219.2 523.457 220.8 529.457 223.467Z" fill="white"/>
<path d="M586.79 217.867C579.19 220.667 576.523 223.6 576.523 229.333C576.523 237.2 580.523 240 597.19 243.467C607.723 245.733 611.19 248.133 611.19 253.6C611.19 261.867 599.99 267.067 588.79 264C584.257 262.933 582.923 261.733 581.057 257.333C577.323 248.933 575.323 251.067 577.323 261.2C577.99 264.533 579.057 265.6 583.057 266.667C590.657 268.8 601.857 268.267 608.123 265.333C617.857 261.067 620.523 250.533 613.723 244.133C611.057 241.733 607.19 240.4 592.79 237.2C575.99 233.6 580.123 219.467 597.99 219.467C606.123 219.333 609.19 221.067 611.59 226.667C613.057 229.867 613.057 229.867 613.59 224.8C613.857 222 613.457 219.067 612.657 218.267C610.39 216 592.523 215.733 586.79 217.867Z" fill="white"/>
<path d="M623.857 227.6C623.323 228.8 623.19 232.267 623.457 235.467C623.857 240 624.123 240.667 625.057 238.667C627.19 233.2 628.257 232 632.257 230.8C640.39 228.533 640.523 229.067 640.523 252.533C640.523 271.467 640.257 274 638.257 275.2C636.39 276.267 637.59 276.533 643.19 276.533C648.79 276.533 649.99 276.267 648.257 275.2C646.123 274 645.857 271.467 645.857 252.667C645.857 239.067 646.39 231.2 647.323 230.667C648.123 230.133 650.79 230.133 653.323 230.667C657.19 231.333 658.39 232.4 659.99 236.267C662.523 242.133 664.257 240.533 663.457 232.933L662.923 227.333H656.657C653.323 227.333 644.657 226.933 637.59 226.4C626.657 225.733 624.523 225.867 623.857 227.6Z" fill="white"/>
<path d="M679.457 219.333C669.457 224.533 665.323 231.733 666.123 243.2C666.523 250.667 667.323 252.533 671.59 257.733C685.19 274.4 715.057 269.733 720.39 250.133C722.123 243.733 720.257 233.2 716.39 227.867C712.123 221.867 703.057 217.2 694.257 216.4C687.723 215.867 685.457 216.4 679.457 219.333ZM702.39 221.867C716.123 227.6 719.323 249.733 707.857 259.733C698.123 268.4 683.19 265.867 675.59 254.533C668.123 243.2 671.59 226.667 682.523 221.867C687.723 219.6 696.79 219.6 702.39 221.867Z" fill="white"/>
<path d="M725.857 226.067C725.857 226.733 726.79 227.667 727.857 228.2C729.59 228.733 729.857 232.6 729.857 251.533C729.857 271.933 729.59 274.2 727.59 274.733C726.257 275.133 728.523 275.4 732.523 275.4C736.523 275.4 739.057 275.133 738.257 274.733C736.923 274.333 736.523 268.333 736.523 251.4V228.6L745.323 229.4C756.123 230.467 760.523 233 760.523 238.067C760.523 243.667 755.323 247.8 747.59 248.6C737.19 249.533 737.19 249.8 744.657 257.267C748.39 261.133 753.59 266.867 756.123 269.933C760.39 275 761.457 275.667 766.39 275.533C769.323 275.533 770.923 275.133 769.857 274.733C768.79 274.333 763.19 269.267 757.59 263.267L747.457 252.467L753.323 250.867C767.723 247.267 771.457 233.933 759.723 228.333C753.857 225.533 725.857 223.667 725.857 226.067Z" fill="white"/>
<path d="M776.523 217.2C776.523 217.867 777.057 218.667 777.723 218.933C778.39 219.067 779.323 228.933 779.857 240.8C780.657 259.867 780.523 262.533 778.523 264.4C776.523 266.533 777.723 266.667 797.723 266.667H819.19V260.533C819.19 256.933 818.657 254.8 817.857 255.333C817.19 255.733 816.523 256.933 816.523 258C816.523 262.667 812.657 264 799.057 264H785.857V253.333V242.667H794.523C801.057 242.667 803.457 243.2 803.99 244.667C805.59 248.667 807.19 246.533 807.19 240.4V234.267L803.99 237.2C801.457 239.6 799.59 240.133 793.723 239.733L786.523 239.333L786.123 229.6L785.723 220H797.857C809.057 220 810.257 220.267 813.323 223.333L816.657 226.667L816.257 222.4C815.857 218.133 815.723 218 807.857 217.2C795.457 215.867 776.523 215.867 776.523 217.2Z" fill="white"/>
<path d="M272.257 218.267C273.057 218.533 273.857 219.867 273.857 221.067C273.857 224.267 255.59 264.267 253.59 265.6C252.523 266.133 254.657 266.533 258.523 266.533C262.257 266.533 264.39 266.133 263.59 265.733C261.19 264.8 261.457 262.133 264.657 254.533L267.59 247.867L278.923 248.267L290.257 248.667L293.057 256.4C295.323 263.067 295.457 264.267 293.857 265.333C292.523 266.267 294.123 266.667 299.19 266.667C303.323 266.667 305.857 266.133 304.923 265.6C303.99 264.933 300.123 257.6 296.39 249.2C292.79 240.8 288.657 231.6 287.323 228.667C285.99 225.733 284.39 222 283.99 220.267C283.19 217.733 282.123 217.333 276.79 217.467C273.323 217.467 271.323 217.867 272.257 218.267ZM286.657 241.6L287.457 245.333H278.923C274.123 245.333 269.99 244.933 269.59 244.533C269.19 244.133 270.923 238.933 273.59 233.067L278.523 222.267L282.123 230.133C284.123 234.4 286.123 239.6 286.657 241.6Z" fill="white"/>
<path d="M829.857 221.2C829.857 223.467 829.857 225.733 829.723 226.267C829.723 226.8 830.257 227.467 831.057 227.733C831.857 228 832.523 227.2 832.523 225.867C832.523 224 832.923 223.867 834.123 225.067C836.523 227.467 838.523 227.067 836.39 224.533C835.057 222.8 835.057 222.267 836.657 221.2C837.723 220.533 837.857 220 837.19 220C836.39 220 835.057 220.667 834.123 221.6C832.923 222.8 832.523 222.667 832.523 221.067C832.523 219.867 831.99 218.4 831.19 218C830.39 217.467 829.857 218.933 829.857 221.2Z" fill="white"/>
</svg>
